<?xml version="1.0" standalone="no"?>
<!DOCTYPE svg PUBLIC "-//W3C//DTD SVG 20010904//EN"
 "http://www.w3.org/TR/2001/REC-SVG-20010904/DTD/svg10.dtd">
<svg version="1.0" xmlns="http://www.w3.org/2000/svg"
 width="1280.000000pt" height="1280.000000pt" viewBox="0 0 1280.000000 1280.000000"
 preserveAspectRatio="xMidYMid meet">

<g transform="translate(0.000000,1280.000000) scale(0.100000,-0.100000)"
fill="#000000" stroke="none">
<path d="M7700 12063 c0 -5 -37 -16 -83 -26 -106 -24 -113 -27 -190 -82 -42
-31 -88 -77 -130 -134 -52 -69 -340 -501 -465 -696 -14 -22 -42 -65 -62 -95
-20 -30 -62 -96 -93 -146 l-57 -91 -327 -6 c-305 -5 -384 -10 -708 -37 -262
-23 -778 -100 -973 -145 -71 -17 -174 -41 -247 -57 -50 -11 -195 -48 -270 -69
-99 -28 -135 -38 -205 -59 -112 -33 -422 -136 -477 -158 -26 -11 -79 -32 -118
-47 -149 -57 -206 -81 -386 -161 -904 -401 -1728 -951 -2446 -1633 -239 -226
-303 -312 -347 -466 -9 -33 -21 -68 -27 -77 -11 -22 -12 -268 -1 -268 5 0 14
-24 21 -53 50 -225 251 -431 499 -509 91 -29 299 -31 387 -4 160 48 241 104
481 331 421 397 859 724 1354 1010 138 80 490 262 590 305 30 13 89 39 130 58
41 19 103 45 138 58 34 13 92 36 130 50 105 41 488 170 577 194 375 103 729
179 980 211 268 33 290 34 270 4 -6 -8 -41 -63 -80 -124 -38 -61 -110 -173
-160 -250 -49 -77 -164 -257 -255 -400 l-165 -261 -50 -14 c-27 -8 -104 -28
-170 -46 -256 -68 -621 -195 -825 -287 -30 -14 -76 -33 -102 -44 -151 -60
-536 -268 -777 -421 -369 -234 -767 -552 -1021 -815 -149 -155 -187 -215 -241
-393 -23 -76 -18 -270 10 -360 77 -250 244 -418 496 -500 58 -19 93 -23 200
-23 114 0 140 3 211 26 152 49 197 81 485 342 154 139 491 403 579 453 38 21
39 20 69 -110 35 -150 104 -255 223 -338 72 -51 138 -78 298 -125 137 -39 163
-49 166 -60 2 -6 -58 -46 -132 -90 -269 -160 -661 -481 -779 -638 -142 -188
-183 -422 -115 -652 49 -167 184 -329 353 -424 158 -90 390 -108 575 -46 114
39 193 93 362 249 106 98 364 286 392 286 12 0 10 -10 -32 -165 -16 -60 -48
-177 -70 -260 -22 -82 -55 -208 -75 -280 -19 -71 -51 -191 -71 -265 -35 -133
-60 -225 -109 -410 -14 -52 -44 -165 -66 -250 -23 -85 -56 -211 -74 -280 -149
-563 -197 -759 -217 -882 -11 -72 -10 -83 16 -190 29 -121 39 -144 118 -250
88 -120 196 -183 361 -212 20 -4 37 -11 37 -16 0 -6 41 -10 95 -10 52 0 95 4
95 9 0 5 15 12 33 16 131 26 175 41 237 83 86 58 131 102 196 189 30 40 59 73
64 73 6 0 59 -24 118 -54 130 -65 287 -110 440 -127 270 -29 573 52 827 220
80 52 221 189 282 272 78 105 152 261 195 406 l40 138 0 200 0 200 -40 135
c-79 267 -220 478 -427 641 -36 28 -65 58 -65 67 0 8 47 85 103 171 57 86 164
248 237 361 193 298 261 400 270 405 10 6 197 -136 285 -216 130 -120 207
-180 274 -213 351 -175 776 -45 964 296 117 212 118 484 2 695 -21 38 -59 93
-85 123 -84 96 -319 305 -470 415 -80 59 -151 112 -158 119 -10 10 -5 24 27
72 159 241 365 560 415 641 21 35 44 67 50 72 18 16 369 -250 569 -431 303
-273 349 -306 501 -355 71 -23 97 -26 211 -26 107 0 142 4 200 23 252 82 419
250 496 500 28 90 33 284 10 360 -54 178 -92 238 -241 393 -254 263 -652 581
-1021 815 -241 153 -626 362 -777 421 -26 11 -77 33 -115 50 -37 17 -70 31
-73 31 -3 0 -20 6 -37 14 -235 101 -674 239 -961 301 -135 29 -136 30 -136 54
0 19 82 347 119 476 11 39 31 115 45 170 52 211 59 236 68 241 5 3 30 1 56 -5
85 -20 395 -98 477 -120 88 -24 469 -153 580 -196 39 -15 97 -37 130 -50 33
-12 94 -38 135 -57 41 -19 100 -45 130 -58 100 -43 452 -225 590 -305 495
-286 933 -613 1354 -1010 240 -227 321 -283 481 -331 89 -28 295 -25 390 5
245 77 446 283 496 508 7 29 16 53 21 53 11 0 10 246 -1 268 -6 9 -18 44 -27
77 -44 153 -107 238 -341 461 -505 481 -1108 929 -1698 1261 -167 94 -546 287
-675 343 -41 18 -106 47 -145 65 -38 17 -142 60 -230 94 -88 35 -185 73 -215
85 -67 27 -500 167 -590 191 -36 10 -76 21 -90 25 -35 11 -212 56 -295 75
-134 30 -155 37 -155 53 0 16 5 37 53 222 14 52 37 146 51 208 14 61 38 163
53 225 34 146 35 223 0 360 -24 95 -34 116 -82 182 -56 75 -166 168 -235 198
-19 9 -71 23 -115 33 -44 9 -84 21 -89 25 -12 11 -186 12 -186 2z m204 -517
c31 -28 39 -42 42 -75 3 -45 -8 -117 -32 -211 -9 -36 -18 -83 -21 -105 -2 -22
-8 -49 -13 -60 -18 -43 -40 -120 -40 -142 0 -14 -5 -33 -11 -44 -10 -19 -23
-76 -36 -159 -3 -19 -11 -42 -18 -50 -7 -8 -15 -31 -18 -50 -15 -91 -25 -132
-35 -142 -7 -7 -12 -29 -12 -49 0 -21 -4 -41 -10 -44 -5 -3 -10 -23 -10 -44 0
-20 -5 -42 -11 -48 -11 -11 -25 -62 -36 -133 -3 -19 -9 -40 -14 -45 -4 -6 -11
-31 -15 -55 -4 -25 -10 -49 -14 -55 -4 -5 -10 -23 -13 -40 -3 -16 -13 -55 -22
-85 -10 -30 -21 -73 -25 -95 -14 -63 -32 -128 -41 -147 -5 -10 -9 -33 -9 -51
0 -18 -5 -38 -11 -44 -11 -11 -23 -54 -35 -128 -3 -16 -12 -44 -20 -62 -8 -17
-14 -45 -14 -61 0 -17 -4 -34 -10 -37 -5 -3 -10 -17 -10 -29 0 -13 -7 -40 -15
-59 -8 -20 -15 -50 -15 -66 0 -16 -4 -33 -10 -36 -5 -3 -10 -15 -10 -27 0 -11
-7 -43 -16 -72 -29 -92 -34 -112 -34 -135 0 -12 -5 -32 -12 -44 -11 -22 -23
-62 -38 -132 -5 -22 -16 -67 -25 -100 -9 -33 -20 -78 -24 -100 -4 -22 -13 -50
-19 -62 -7 -12 -12 -35 -12 -52 0 -16 -4 -33 -10 -36 -5 -3 -10 -15 -10 -27 0
-11 -7 -41 -15 -67 -7 -25 -19 -66 -25 -91 -6 -25 -18 -66 -25 -91 -8 -26 -15
-55 -15 -65 0 -17 -10 -56 -32 -119 -10 -29 -20 -72 -36 -157 -5 -24 -14 -53
-20 -65 -7 -12 -12 -33 -12 -46 0 -14 -7 -41 -16 -62 -8 -21 -13 -43 -11 -49
3 -7 -1 -23 -9 -37 -7 -13 -13 -40 -14 -59 0 -20 -4 -40 -10 -46 -5 -5 -11
-26 -14 -46 -2 -20 -9 -45 -15 -56 -6 -12 -11 -36 -11 -56 0 -19 -4 -38 -10
-41 -5 -3 -10 -19 -10 -36 0 -22 5 -29 19 -29 10 0 32 -7 47 -15 16 -8 41 -15
56 -15 15 0 29 -4 32 -9 3 -5 20 -11 38 -14 34 -5 160 -40 213 -59 17 -6 44
-12 60 -15 17 -2 39 -8 50 -13 11 -5 31 -11 45 -14 14 -3 52 -12 85 -21 33 -9
76 -20 95 -24 19 -4 45 -13 57 -19 12 -7 33 -12 47 -12 14 0 35 -4 48 -9 13
-5 50 -17 83 -26 33 -9 74 -21 91 -26 17 -5 40 -9 52 -9 12 0 36 -6 54 -14 51
-21 102 -36 125 -36 11 0 34 -7 49 -15 16 -8 41 -15 56 -15 15 0 30 -4 33 -10
3 -5 18 -10 33 -10 15 -1 38 -7 52 -15 14 -8 39 -14 57 -15 17 0 35 -4 38 -10
3 -5 16 -10 27 -10 27 0 87 -36 115 -69 27 -31 32 -116 8 -147 -8 -10 -15 -25
-15 -33 0 -8 -11 -29 -25 -47 -14 -18 -25 -36 -25 -40 0 -4 -11 -21 -23 -38
-13 -17 -26 -35 -28 -41 -5 -13 -109 -173 -160 -247 -21 -31 -39 -60 -39 -63
0 -4 -11 -21 -25 -39 -14 -18 -25 -38 -25 -43 0 -6 -6 -13 -13 -16 -8 -3 -22
-21 -31 -41 -9 -20 -20 -36 -24 -36 -4 0 -14 -15 -21 -32 -8 -18 -36 -63 -63
-101 -26 -37 -48 -69 -48 -72 0 -3 -18 -30 -40 -60 -22 -30 -40 -61 -40 -69 0
-8 -3 -16 -8 -18 -11 -4 -92 -126 -92 -137 0 -5 -3 -11 -8 -13 -8 -3 -92 -125
-92 -133 0 -3 -5 -11 -10 -18 -16 -18 -240 -359 -240 -365 0 -2 -16 -26 -35
-52 -19 -26 -35 -51 -35 -54 0 -3 -22 -37 -48 -74 -27 -37 -52 -74 -55 -82 -7
-15 -24 -43 -40 -64 -38 -52 -87 -129 -87 -136 0 -4 -3 -10 -8 -12 -4 -1 -38
-52 -77 -113 -38 -60 -79 -124 -92 -141 -13 -17 -23 -36 -23 -41 0 -6 -7 -13
-15 -17 -8 -3 -15 -11 -15 -17 0 -6 -16 -33 -35 -59 -19 -26 -35 -51 -35 -54
0 -4 -37 -62 -83 -129 -45 -67 -109 -165 -142 -217 -32 -52 -62 -97 -65 -100
-3 -3 -26 -36 -50 -75 -25 -38 -48 -74 -53 -80 -15 -19 -157 -237 -157 -241 0
-3 -18 -29 -40 -59 -22 -30 -40 -59 -40 -65 0 -5 -4 -10 -10 -10 -5 0 -10 -5
-10 -10 0 -6 -17 -34 -38 -63 -20 -29 -44 -65 -52 -82 -8 -16 -36 -60 -62 -96
-27 -37 -48 -72 -48 -78 0 -6 -7 -14 -15 -17 -8 -4 -15 -11 -15 -16 0 -6 -16
-32 -35 -58 -19 -26 -35 -53 -35 -59 0 -6 -7 -14 -15 -17 -8 -4 -15 -11 -15
-17 0 -5 -56 -94 -125 -197 -69 -104 -125 -191 -125 -194 0 -3 -23 -37 -50
-76 -28 -39 -50 -72 -50 -75 0 -3 -23 -36 -50 -75 -28 -39 -50 -73 -50 -76 0
-3 -11 -20 -25 -38 -14 -18 -25 -36 -25 -39 0 -4 -23 -38 -50 -77 -28 -39 -50
-72 -50 -75 0 -7 -48 -72 -81 -112 -38 -45 -60 -53 -148 -53 l-79 0 -31 39
c-27 33 -31 47 -31 98 0 32 4 63 9 69 5 5 14 38 21 74 21 115 28 144 38 175
24 69 32 103 32 131 0 16 7 38 15 48 8 11 15 32 15 47 0 15 4 31 10 34 6 3 10
23 10 44 0 20 4 41 10 47 9 9 18 44 39 149 4 22 13 51 19 65 6 14 15 48 22 75
6 28 17 73 25 100 8 28 19 70 26 95 6 25 18 62 25 83 8 20 14 53 14 72 0 18 5
37 10 40 6 3 10 17 10 31 0 14 5 35 12 47 11 21 21 58 37 142 4 22 12 49 18
60 6 11 16 45 22 75 7 30 19 80 27 110 9 30 19 69 24 85 7 28 31 112 51 181 5
17 9 41 9 53 0 12 5 32 12 44 11 22 22 61 37 144 4 23 12 48 18 55 6 7 13 29
16 48 9 57 46 198 58 222 5 10 9 33 9 51 0 18 6 41 14 52 7 11 16 34 19 50 3
17 10 50 15 75 4 25 14 55 20 67 7 12 12 33 12 47 0 15 4 34 9 44 13 26 34 92
42 137 16 85 26 121 37 142 7 12 12 35 12 50 0 16 5 34 10 39 6 6 12 29 14 52
2 23 8 47 13 54 6 7 13 27 16 43 16 83 28 130 37 139 6 6 10 26 10 46 0 20 4
40 9 45 5 6 11 27 14 48 3 20 9 43 15 50 5 6 12 28 15 47 10 58 24 123 35 155
28 82 44 136 41 139 -11 7 -90 35 -129 46 -25 7 -54 16 -65 21 -11 5 -38 13
-60 18 -22 6 -56 14 -75 20 -19 5 -69 19 -110 31 -41 12 -100 29 -130 37 -30
9 -65 20 -78 24 -13 5 -33 9 -46 9 -12 0 -26 3 -30 7 -8 8 -83 29 -151 42 -22
4 -49 12 -60 18 -11 5 -47 15 -80 22 -33 7 -71 18 -85 23 -14 6 -41 14 -60 19
-19 4 -51 12 -70 18 -19 5 -55 15 -80 22 -25 6 -53 15 -62 20 -10 5 -27 9 -38
9 -10 0 -34 6 -52 14 -49 20 -102 36 -124 36 -10 0 -28 7 -38 15 -11 8 -30 15
-43 15 -12 0 -38 16 -58 35 -30 31 -35 42 -35 83 0 27 4 52 9 58 5 5 23 36 41
69 19 33 42 74 52 90 10 17 21 37 25 45 4 8 32 53 62 100 31 47 58 90 60 95 2
6 26 45 53 87 26 43 48 80 48 84 0 3 10 20 23 37 12 18 28 41 34 52 7 11 45
71 85 133 40 62 83 133 96 157 13 25 28 45 33 45 5 0 9 5 9 11 0 6 21 43 47
82 27 40 50 77 52 82 2 6 7 12 10 15 9 7 211 328 211 335 0 3 18 30 40 60 22
30 40 57 40 61 0 3 15 27 34 53 18 25 42 62 52 81 11 19 29 49 42 67 12 17 22
34 22 38 0 4 23 38 50 76 28 38 50 71 50 75 0 3 21 38 47 77 27 40 49 75 51
79 2 4 32 51 68 104 35 53 64 98 64 100 0 2 26 44 57 92 32 48 60 91 62 97 2
5 26 42 53 81 26 40 48 75 48 77 0 3 34 55 75 116 41 62 75 116 75 122 0 5 23
40 50 78 28 38 50 71 50 74 0 4 18 32 40 63 22 32 40 63 40 70 0 7 3 14 8 16
7 3 84 115 91 133 2 6 19 31 37 56 19 26 34 50 34 54 0 3 11 21 25 39 14 18
25 37 25 41 0 5 6 16 14 24 8 9 21 27 28 41 8 14 45 72 83 130 38 58 78 121
88 140 11 19 22 37 26 40 9 7 61 88 61 95 0 3 17 29 38 58 20 29 46 69 57 90
11 20 23 37 27 37 5 0 8 5 8 12 0 6 27 51 60 99 32 48 67 103 77 121 10 18 62
99 116 180 53 81 97 149 97 153 0 9 84 129 93 133 4 2 7 8 7 13 0 7 176 275
190 289 3 3 18 22 33 43 28 37 28 37 100 37 67 0 74 -3 111 -34z"/>
</g>
</svg>
