<?xml version="1.0" standalone="no"?>
<!DOCTYPE svg PUBLIC "-//W3C//DTD SVG 20010904//EN"
 "http://www.w3.org/TR/2001/REC-SVG-20010904/DTD/svg10.dtd">
<svg version="1.0" xmlns="http://www.w3.org/2000/svg"
 width="1280.000000pt" height="1280.000000pt" viewBox="0 0 1280.000000 1280.000000"
 preserveAspectRatio="xMidYMid meet">

<g transform="translate(0.000000,1280.000000) scale(0.100000,-0.100000)"
fill="#000000" stroke="none">
<path d="M8923 9605 c-277 -50 -466 -198 -602 -472 -78 -157 -119 -330 -128
-543 -10 -246 33 -463 131 -665 97 -199 223 -334 381 -411 135 -65 201 -78
390 -78 186 1 267 18 400 83 242 120 418 394 481 746 24 137 24 386 -1 515
-73 388 -273 675 -546 783 -134 53 -347 71 -506 42z m308 -412 c140 -62 217
-232 240 -529 13 -158 2 -358 -27 -486 -35 -158 -113 -276 -213 -321 -67 -32
-196 -30 -268 2 -61 27 -131 98 -167 168 -62 122 -92 337 -82 578 15 358 102
539 291 602 56 18 169 11 226 -14z"/>
<path d="M170 8525 l0 -1055 250 0 250 0 0 415 0 415 178 0 177 0 160 -413
161 -412 273 -3 c257 -2 273 -1 268 15 -2 10 -89 217 -192 461 -103 244 -185
445 -183 446 1 1 35 21 73 43 125 73 215 179 257 303 33 94 33 303 1 405 -48
151 -163 295 -284 353 -149 73 -244 82 -871 82 l-518 0 0 -1055z m1054 646
c50 -25 100 -84 123 -144 33 -90 4 -215 -68 -286 -68 -69 -96 -75 -366 -79
l-243 -4 0 272 0 272 253 -4 c241 -3 254 -4 301 -27z"/>
<path d="M2720 9556 c-5 -13 -156 -482 -335 -1042 -180 -560 -329 -1024 -332
-1031 -4 -10 36 -13 214 -13 l218 0 66 218 65 217 341 3 c319 2 342 1 347 -15
9 -32 66 -221 96 -323 l31 -100 264 0 c146 0 265 2 265 5 0 5 -496 1585 -606
1933 l-55 172 -285 0 -284 0 -10 -24z m460 -1258 c0 -5 -99 -8 -220 -8 -143 0
-220 4 -220 10 0 13 210 701 218 714 4 7 221 -693 222 -716z"/>
<path d="M4190 8525 l0 -1055 196 0 195 0 -3 705 c-2 388 -3 705 -2 705 0 0
185 -317 410 -705 l409 -704 213 -1 212 0 0 1055 0 1055 -190 0 -190 0 -2
-612 -3 -613 -355 613 -355 612 -267 0 -268 0 0 -1055z"/>
<path d="M6240 8525 l0 -1056 458 4 c481 4 501 6 642 55 421 146 676 598 630
1117 -25 289 -105 466 -298 667 -133 138 -239 197 -428 239 -92 20 -133 22
-551 26 l-453 5 0 -1057z m829 650 c134 -32 225 -103 296 -230 180 -323 105
-820 -151 -996 -84 -57 -142 -71 -321 -77 l-163 -4 0 661 0 661 138 0 c87 0
160 -6 201 -15z"/>
<path d="M10320 8525 l0 -1055 210 0 210 0 2 843 3 844 255 -844 254 -843 171
0 170 0 262 848 262 847 0 -847 1 -848 250 0 250 0 0 1055 0 1055 -385 0 -384
0 -34 -107 c-18 -60 -105 -341 -192 -625 -88 -284 -162 -514 -165 -512 -3 3
-86 283 -186 622 l-181 617 -386 3 -387 2 0 -1055z"/>
<path d="M1419 5795 c-169 -32 -285 -92 -396 -202 -130 -130 -190 -294 -180
-488 12 -233 104 -373 317 -480 94 -47 210 -86 420 -140 305 -78 369 -120 372
-239 1 -66 -19 -111 -68 -155 -56 -49 -116 -70 -220 -78 -221 -16 -396 76
-455 238 -20 56 -24 60 -47 54 -14 -3 -115 -27 -226 -52 -111 -25 -202 -46
-203 -47 -6 -6 31 -115 54 -161 130 -258 387 -406 733 -422 220 -10 424 27
575 104 96 50 236 191 287 288 127 246 96 518 -83 710 -122 131 -212 171 -586
265 -146 37 -252 69 -285 87 -67 36 -98 86 -98 161 0 120 76 177 250 189 183
12 310 -57 377 -204 14 -29 26 -53 28 -53 8 0 409 141 413 145 9 9 -66 152
-112 212 -91 120 -239 212 -406 253 -114 28 -353 36 -461 15z"/>
<path d="M2780 4715 l0 -1055 755 0 755 0 0 210 0 210 -505 0 -505 0 0 230 0
230 400 0 400 0 0 200 0 200 -400 0 -400 0 0 215 0 215 505 0 505 0 0 200 0
200 -755 0 -755 0 0 -1055z"/>
<path d="M4580 4715 l0 -1055 250 0 250 0 0 415 0 415 178 0 177 0 160 -413
161 -412 273 -3 c257 -2 273 -1 268 15 -2 10 -89 217 -192 461 -103 244 -185
445 -183 446 1 1 35 21 73 43 125 73 215 179 257 303 33 94 33 303 1 405 -48
151 -163 295 -284 353 -149 73 -244 82 -871 82 l-518 0 0 -1055z m1054 646
c50 -25 100 -84 123 -144 33 -90 4 -215 -68 -286 -68 -69 -96 -75 -366 -79
l-243 -4 0 272 0 272 253 -4 c241 -3 254 -4 301 -27z"/>
<path d="M6404 5753 c73 -248 610 -2038 617 -2060 l11 -33 266 0 267 0 314
1043 c173 573 316 1048 319 1055 3 10 -39 12 -204 10 l-209 -3 -217 -743
c-119 -409 -218 -745 -220 -747 -2 -2 -98 333 -213 746 l-209 749 -264 0
c-246 0 -263 -1 -258 -17z"/>
<path d="M8390 4715 l0 -1055 755 0 755 0 0 210 0 210 -505 0 -505 0 0 230 0
230 400 0 400 0 0 200 0 200 -400 0 -400 0 0 215 0 215 505 0 505 0 0 200 0
200 -755 0 -755 0 0 -1055z"/>
<path d="M10200 4715 l0 -1055 250 0 250 0 0 415 0 415 178 0 177 0 160 -413
161 -412 273 -3 c257 -2 273 -1 268 15 -2 10 -89 217 -192 461 -103 244 -185
445 -183 446 1 1 35 21 73 43 125 73 215 179 257 303 33 94 33 303 1 405 -48
151 -163 295 -284 353 -149 73 -244 82 -871 82 l-518 0 0 -1055z m1054 646
c50 -25 100 -84 123 -144 33 -90 4 -215 -68 -286 -68 -69 -96 -75 -366 -79
l-243 -4 0 272 0 272 253 -4 c241 -3 254 -4 301 -27z"/>
</g>
</svg>
