<?xml version="1.0" standalone="no"?>
<!DOCTYPE svg PUBLIC "-//W3C//DTD SVG 20010904//EN"
 "http://www.w3.org/TR/2001/REC-SVG-20010904/DTD/svg10.dtd">
<svg version="1.0" xmlns="http://www.w3.org/2000/svg"
 width="1280.000000pt" height="1280.000000pt" viewBox="0 0 1280.000000 1280.000000"
 preserveAspectRatio="xMidYMid meet">

<g transform="translate(0.000000,1280.000000) scale(0.100000,-0.100000)"
fill="#000000" stroke="none">
<path d="M7408 9965 c-305 -51 -529 -224 -680 -524 -193 -382 -191 -955 3
-1342 142 -286 327 -448 594 -520 67 -19 108 -22 255 -23 149 0 188 3 263 22
268 67 459 227 597 497 103 203 140 361 147 640 5 172 2 217 -15 320 -62 361
-253 684 -486 824 -75 45 -231 97 -329 110 -102 14 -252 12 -349 -4z m292
-451 c165 -49 259 -202 300 -484 15 -97 15 -434 0 -530 -41 -284 -135 -435
-300 -484 -189 -56 -370 35 -455 229 -110 248 -110 792 0 1040 86 195 266 285
455 229z"/>
<path d="M1020 8765 l0 -1175 275 0 275 0 0 465 0 465 198 0 197 0 180 -465
180 -465 303 0 c166 0 302 4 302 8 0 4 -94 233 -210 508 -115 274 -210 505
-210 511 0 7 19 22 43 34 71 36 163 106 211 161 163 186 192 494 71 743 -114
234 -279 341 -580 375 -50 5 -343 10 -662 10 l-573 0 0 -1175z m1143 735 c53
-19 108 -69 142 -131 27 -48 30 -63 30 -139 0 -102 -24 -160 -93 -227 -70 -68
-105 -75 -409 -81 l-263 -4 0 302 0 302 278 -5 c191 -3 289 -8 315 -17z"/>
<path d="M3330 8765 l0 -1175 845 0 845 0 0 235 0 235 -560 0 -560 0 0 255 0
255 440 0 440 0 0 220 0 220 -440 0 -440 0 0 240 0 240 560 0 560 0 0 225 0
225 -845 0 -845 0 0 -1175z"/>
<path d="M5688 9063 l-3 -878 -28 -48 c-35 -59 -108 -103 -187 -113 -49 -7
-242 7 -312 22 l-28 6 0 -230 0 -230 48 -11 c178 -38 458 -38 611 -1 182 44
305 137 374 280 74 155 71 97 74 1143 l4 937 -275 0 -275 0 -3 -877z"/>
<path d="M8950 8765 l0 -1175 275 0 275 0 0 1175 0 1175 -275 0 -275 0 0
-1175z"/>
<path d="M9980 8765 l0 -1175 216 0 216 0 -4 784 -3 784 75 -128 c41 -71 246
-423 455 -784 l380 -655 238 -1 237 0 0 1175 0 1175 -216 0 -215 0 3 -684 c2
-377 0 -679 -4 -673 -4 7 -182 314 -396 682 l-389 670 -297 3 -296 2 0 -1175z"/>
<path d="M910 5733 c-67 -7 -205 -45 -268 -74 -128 -58 -242 -157 -321 -279
-79 -122 -116 -271 -107 -425 11 -178 55 -286 160 -391 125 -125 280 -193 641
-284 259 -66 344 -99 392 -153 40 -45 47 -70 41 -146 -7 -97 -70 -167 -188
-207 -77 -27 -278 -26 -368 0 -130 39 -221 122 -272 249 -17 41 -28 56 -39 53
-9 -3 -122 -28 -251 -57 -129 -29 -237 -53 -239 -55 -2 -2 8 -38 23 -81 102
-291 328 -478 662 -548 44 -9 140 -19 214 -22 326 -13 600 66 768 222 173 161
253 336 254 555 1 193 -59 336 -197 476 -67 68 -97 89 -175 127 -106 51 -257
98 -494 153 -262 60 -328 90 -368 167 -27 51 -29 137 -5 183 44 85 132 119
302 118 100 0 130 -4 177 -23 81 -32 160 -106 200 -189 17 -37 32 -68 33 -69
2 -3 458 148 464 153 8 7 -52 131 -95 195 -129 195 -341 314 -617 349 -77 9
-252 11 -327 3z"/>
<path d="M2370 4525 l0 -1175 845 0 845 0 0 235 0 235 -560 0 -560 0 0 255 0
255 440 0 440 0 0 220 0 220 -440 0 -440 0 0 240 0 240 560 0 560 0 0 225 0
225 -845 0 -845 0 0 -1175z"/>
<path d="M4390 4525 l0 -1175 275 0 275 0 0 465 0 465 198 0 197 0 180 -465
180 -465 303 0 c166 0 302 4 302 8 0 4 -94 233 -210 508 -115 274 -210 505
-210 511 0 7 19 22 43 34 71 36 163 106 211 161 163 186 192 494 71 743 -114
234 -279 341 -580 375 -50 5 -343 10 -662 10 l-573 0 0 -1175z m1143 735 c53
-19 108 -69 142 -131 27 -48 30 -63 30 -139 0 -102 -24 -160 -93 -227 -70 -68
-105 -75 -409 -81 l-263 -4 0 302 0 302 278 -5 c191 -3 289 -8 315 -17z"/>
<path d="M6400 5693 c0 -5 553 -1854 676 -2260 l25 -83 297 0 297 0 349 1156
c191 635 350 1164 353 1175 5 18 -2 19 -225 19 l-230 0 -14 -47 c-8 -27 -117
-402 -243 -835 -126 -433 -231 -785 -234 -783 -2 3 -108 377 -235 832 l-232
828 -292 3 c-160 1 -292 -1 -292 -5z"/>
<path d="M8610 4525 l0 -1175 845 0 845 0 0 235 0 235 -560 0 -560 0 0 255 0
255 440 0 440 0 0 220 0 220 -440 0 -440 0 0 240 0 240 560 0 560 0 0 225 0
225 -845 0 -845 0 0 -1175z"/>
<path d="M10630 4525 l0 -1175 275 0 275 0 0 465 0 465 198 0 197 0 180 -465
180 -465 303 0 c166 0 302 4 302 8 0 4 -94 233 -210 508 -115 274 -210 505
-210 511 0 7 19 22 43 34 71 36 163 106 211 161 163 186 192 494 71 743 -114
234 -279 341 -580 375 -50 5 -343 10 -662 10 l-573 0 0 -1175z m1143 735 c53
-19 108 -69 142 -131 27 -48 30 -63 30 -139 0 -102 -24 -160 -93 -227 -70 -68
-105 -75 -409 -81 l-263 -4 0 302 0 302 278 -5 c191 -3 289 -8 315 -17z"/>
</g>
</svg>
