<?xml version="1.0" standalone="no"?>
<!DOCTYPE svg PUBLIC "-//W3C//DTD SVG 20010904//EN"
 "http://www.w3.org/TR/2001/REC-SVG-20010904/DTD/svg10.dtd">
<svg version="1.0" xmlns="http://www.w3.org/2000/svg"
 width="1280.000000pt" height="1280.000000pt" viewBox="0 0 1280.000000 1280.000000"
 preserveAspectRatio="xMidYMid meet">

<g transform="translate(0.000000,1280.000000) scale(0.100000,-0.100000)"
fill="#000000" stroke="none">
<path d="M1835 10989 c-454 -58 -791 -350 -871 -757 -20 -106 -18 -287 6 -400
49 -240 180 -393 445 -522 160 -79 280 -118 574 -191 343 -85 446 -127 506
-209 75 -102 55 -251 -46 -349 -89 -85 -194 -116 -394 -116 -155 1 -224 14
-333 65 -117 54 -223 183 -263 318 -11 39 -15 42 -38 37 -14 -3 -161 -37 -326
-74 l-300 -68 3 -29 c7 -58 84 -233 141 -320 158 -241 412 -397 756 -466 95
-20 141 -23 330 -22 311 1 488 36 689 135 256 127 454 372 523 646 24 97 24
344 -1 432 -39 142 -108 260 -221 380 -161 171 -328 241 -875 371 -308 72
-398 110 -449 187 -40 60 -55 115 -47 177 17 151 133 229 356 243 263 16 441
-77 540 -281 l41 -84 299 100 299 99 -20 52 c-120 308 -369 523 -702 607 -187
47 -435 62 -622 39z"/>
<path d="M9880 9440 l0 -1510 330 0 330 0 0 1510 0 1510 -330 0 -330 0 0
-1510z"/>
<path d="M11080 9440 l0 -1510 330 0 330 0 0 1510 0 1510 -330 0 -330 0 0
-1510z"/>
<path d="M4788 10210 c-199 -34 -355 -137 -438 -291 l-35 -64 -3 153 -3 152
-309 0 -310 0 0 -1115 0 -1115 319 0 320 0 4 728 c3 658 5 734 22 797 23 93
45 134 94 178 63 57 103 70 211 71 84 1 102 -2 145 -25 55 -28 107 -89 127
-147 9 -28 13 -225 16 -819 l3 -783 329 0 329 0 4 728 c4 778 5 801 56 900 80
157 351 202 474 79 74 -74 71 -31 74 -914 l4 -793 329 0 330 0 0 813 c0 806
-4 927 -35 1052 -69 276 -335 439 -685 422 -138 -7 -208 -24 -317 -77 -97 -48
-188 -132 -248 -229 -34 -55 -41 -61 -50 -46 -142 243 -341 357 -617 354 -51
-1 -114 -5 -140 -9z"/>
<path d="M8200 10209 c-170 -21 -323 -69 -475 -147 -176 -90 -297 -249 -350
-455 l-23 -92 26 -7 c15 -4 151 -19 302 -33 286 -26 289 -26 290 17 0 39 45
134 83 176 75 81 193 120 331 109 93 -7 165 -37 215 -92 54 -58 71 -121 71
-256 l0 -107 -67 -7 c-459 -43 -675 -80 -838 -144 -241 -93 -397 -261 -455
-487 -25 -95 -27 -254 -5 -339 78 -307 360 -483 739 -462 214 12 358 70 493
200 46 45 101 103 121 131 l37 51 11 -125 c6 -69 15 -144 19 -167 l7 -43 319
0 c175 0 319 1 319 3 0 1 -7 36 -16 77 -14 64 -17 194 -24 860 -8 865 -8 860
-72 983 -18 35 -63 93 -103 133 -56 57 -89 81 -165 117 -196 95 -526 140 -790
106z m470 -1367 c0 -218 -38 -331 -146 -439 -79 -80 -146 -107 -259 -108 -81
0 -95 3 -142 29 -89 49 -138 139 -138 251 1 136 74 233 228 305 110 50 312
101 440 109 15 1 17 -12 17 -147z"/>
<path d="M1085 5549 c-454 -58 -791 -350 -871 -757 -20 -106 -18 -287 6 -400
49 -240 180 -393 445 -522 160 -79 280 -118 574 -191 343 -85 446 -127 506
-209 75 -102 55 -251 -46 -349 -89 -85 -194 -116 -394 -116 -155 1 -224 14
-333 65 -117 54 -223 183 -263 318 -11 39 -15 42 -38 37 -14 -3 -161 -37 -326
-74 l-300 -68 3 -29 c7 -58 84 -233 141 -320 158 -241 412 -397 756 -466 95
-20 141 -23 330 -22 311 1 488 36 689 135 256 127 454 372 523 646 24 97 24
344 -1 432 -39 142 -108 260 -221 380 -161 171 -328 241 -875 371 -308 72
-398 110 -449 187 -40 60 -55 115 -47 177 17 151 133 229 356 243 263 16 441
-77 540 -281 l41 -84 299 100 299 99 -20 52 c-120 308 -369 523 -702 607 -187
47 -435 62 -622 39z"/>
<path d="M3735 4769 c-441 -64 -785 -400 -879 -860 -58 -285 -34 -596 64 -831
68 -164 227 -361 368 -457 181 -123 389 -181 642 -181 427 0 739 188 924 557
34 68 86 197 86 212 0 4 -107 15 -237 25 -131 9 -266 19 -299 23 l-62 6 -7
-42 c-11 -68 -71 -176 -122 -220 -113 -100 -307 -119 -459 -44 -156 76 -234
225 -234 446 l0 97 721 0 722 0 -7 121 c-21 350 -106 620 -253 794 -156 186
-400 321 -637 354 -89 13 -244 12 -331 0z m352 -459 c65 -27 136 -102 168
-174 24 -54 55 -184 55 -231 l0 -25 -396 0 -396 0 7 53 c12 84 51 196 90 252
51 74 127 124 230 149 50 12 191 -2 242 -24z"/>
<path d="M6340 4764 c-142 -38 -270 -180 -340 -377 l-19 -52 0 193 -1 192
-305 0 -305 0 0 -1115 0 -1115 320 0 320 0 0 493 c0 270 5 535 10 587 20 185
79 335 167 425 75 75 161 109 308 121 l85 7 0 322 c0 285 -2 324 -16 329 -29
11 -168 5 -224 -10z"/>
<path d="M9815 4769 c-441 -64 -785 -400 -879 -860 -58 -285 -34 -596 64 -831
68 -164 227 -361 368 -457 181 -123 389 -181 642 -181 427 0 739 188 924 557
34 68 86 197 86 212 0 4 -107 15 -237 25 -131 9 -266 19 -299 23 l-62 6 -7
-42 c-11 -68 -71 -176 -122 -220 -113 -100 -307 -119 -459 -44 -156 76 -234
225 -234 446 l0 97 721 0 722 0 -7 121 c-21 350 -106 620 -253 794 -156 186
-400 321 -637 354 -89 13 -244 12 -331 0z m352 -459 c65 -27 136 -102 168
-174 24 -54 55 -184 55 -231 l0 -25 -396 0 -396 0 7 53 c12 84 51 196 90 252
51 74 127 124 230 149 50 12 191 -2 242 -24z"/>
<path d="M12420 4764 c-142 -38 -270 -180 -340 -377 l-19 -52 0 193 -1 192
-305 0 -305 0 0 -1115 0 -1115 320 0 320 0 0 493 c0 270 5 535 10 587 20 185
79 335 167 425 75 75 161 109 308 121 l85 7 0 322 c0 285 -2 324 -16 329 -29
11 -168 5 -224 -10z"/>
<path d="M6764 4698 c3 -13 174 -513 379 -1113 l375 -1090 258 -3 259 -2 290
847 c160 466 331 968 382 1115 l92 268 -246 -2 -246 -3 -214 -690 c-118 -379
-218 -693 -221 -697 -4 -4 -88 259 -186 585 -99 326 -195 640 -213 700 l-34
107 -340 0 -341 0 6 -22z"/>
</g>
</svg>
